<svg viewBox="0 0 100 75" xmlns="http://www.w3.org/2000/svg">
  <!-- 背景: 空と地面 -->
  <rect x="0" y="0" width="100" height="55" fill="#87CEEB"/> <!-- 空 -->
  <rect x="0" y="55" width="100" height="20" fill="#D2B48C"/> <!-- 地面 -->

  <!-- エアーズロック風の岩山 -->
  <path d="M15 65
           C 20 40, 30 35, 50 40
           C 70 45, 80 40, 85 65
           L 15 65 Z"
        fill="#CD5C5C" stroke="#8B0000" stroke-width="1"/>
  <!-- 岩の質感 (線) -->
  <path d="M30 50 Q40 48 50 50 T70 48" stroke="#A52A2A" fill="none" stroke-width="0.7" opacity="0.6"/>
  <path d="M25 58 Q35 55 45 58 T65 55" stroke="#A52A2A" fill="none" stroke-width="0.7" opacity="0.6"/>
  <path d="M40 62 Q50 60 60 62" stroke="#A52A2A" fill="none" stroke-width="0.7" opacity="0.6"/>

  <!-- 太陽 (夕日風) -->
  <circle cx="80" cy="25" r="12" fill="#FF8C00" opacity="0.8"/>
  <circle cx="80" cy="25" r="8" fill="#FFA500" opacity="0.9"/>

  <!-- 遠くの小さな岩や茂み -->
  <ellipse cx="10" cy="60" rx="5" ry="3" fill="#A0522D" opacity="0.7"/>
  <ellipse cx="90" cy="58" rx="7" ry="4" fill="#8FBC8F" opacity="0.6"/>
</svg>
