<svg viewBox="0 0 100 75" xmlns="http://www.w3.org/2000/svg">
  <!-- 背景の道 -->
  <rect x="0" y="50" width="100" height="25" fill="#E0E0E0"/>
  <line x1="0" y1="50" x2="100" y2="50" stroke="#A0A0A0" stroke-width="1"/>
  <line x1="0" y1="74" x2="100" y2="74" stroke="#A0A0A0" stroke-width="1"/>

  <!-- マリモ風のツゲ -->
  <g transform="translate(20 45)">
    <circle cx="0" cy="0" r="15" fill="#556B2F" stroke="#3A5F0B" stroke-width="1"/>
    <circle cx="0" cy="0" r="12" fill="#6B8E23" opacity="0.7"/>
    <path d="M-5 -5 Q0 -10 5 -5 Q0 0 -5 -5" fill="#8FBC8F" opacity="0.8"/>
  </g>
  <g transform="translate(50 42)">
    <circle cx="0" cy="0" r="18" fill="#556B2F" stroke="#3A5F0B" stroke-width="1"/>
    <circle cx="0" cy="0" r="15" fill="#6B8E23" opacity="0.7"/>
    <path d="M-6 -6 Q0 -12 6 -6 Q0 -2 -6 -6" fill="#8FBC8F" opacity="0.8"/>
    <path d="M-4 4 Q0 8 4 4 Q0 2 -4 4" fill="#9ACD32" opacity="0.7"/>
  </g>
  <g transform="translate(80 46)">
    <circle cx="0" cy="0" r="14" fill="#556B2F" stroke="#3A5F0B" stroke-width="1"/>
    <circle cx="0" cy="0" r="11" fill="#6B8E23" opacity="0.7"/>
    <path d="M-4 -4 Q0 -8 4 -4 Q0 0 -4 -4" fill="#98FB98" opacity="0.8"/>
  </g>

  <!-- 空と遠景 -->
  <rect x="0" y="0" width="100" height="50" fill="#ADD8E6" opacity="0.5"/>
  <circle cx="80" cy="15" r="10" fill="#FFFFE0" opacity="0.7"/> <!-- 太陽 -->
</svg>
